<svg width="20" height="22" viewBox="0 0 20 22" fill="none" xmlns="http://www.w3.org/2000/svg">
<g clip-path="url(#clip0_379_374)">
<path d="M17.0589 8.39786H2.94123C1.72296 8.39786 0.735352 9.19219 0.735352 10.1721V19.6344C0.735352 20.6143 1.72296 21.4086 2.94123 21.4086H17.0589C18.2772 21.4086 19.2648 20.6143 19.2648 19.6344V10.1721C19.2648 9.19219 18.2772 8.39786 17.0589 8.39786Z" stroke="black"/>
<path d="M16.6176 5.91398V8.39785H3.38232V5.91398C3.38232 2.9744 6.34515 0.5914 9.99997 0.5914C13.6548 0.5914 16.6176 2.9744 16.6176 5.91398Z" stroke="black"/>
<path d="M9.85291 15.2581C10.6651 15.2581 11.3235 14.7285 11.3235 14.0753C11.3235 13.422 10.6651 12.8925 9.85291 12.8925C9.04073 12.8925 8.38232 13.422 8.38232 14.0753C8.38232 14.7285 9.04073 15.2581 9.85291 15.2581Z" stroke="black"/>
<path d="M9.11768 17.2688C9.11768 17.5954 9.44688 17.8602 9.85297 17.8602C10.2591 17.8602 10.5883 17.5954 10.5883 17.2688H9.11768ZM9.11768 14.9032V17.2688H10.5883V14.9032H9.11768Z" fill="black"/>
</g>
<defs>
<clipPath id="clip0_379_374">
<rect width="20" height="22" fill="white"/>
</clipPath>
</defs>
</svg>
