<svg width="71" height="49" viewBox="0 0 71 49" fill="none" xmlns="http://www.w3.org/2000/svg">
<path d="M51 1.5C51 7.46737 49 13.5 46 17.4099C42 21.5 42 24 30.5222 24C19.0444 24 19 22.1151 14.6123 17.4099C10.2246 12.7047 10 7.96737 10 2H14C14 10.5 17.4388 14.5834 17.4388 14.5834C17.4388 14.5834 20.5222 20.0027 30.5222 20.0027C40.5222 20.0027 43 14.5834 43 14.5834C43 14.5834 46.4321 8.5 46.4321 1.5H51Z" fill="#2F2105"/>
<path d="M46.4596 9.5273C46.8656 10.8568 47.6895 12.02 48.8091 12.8441C49.9286 13.6682 51.2841 14.1094 52.6742 14.102C54.0643 14.0946 55.415 13.6391 56.5258 12.8032C57.6365 11.9673 58.4481 10.7954 58.84 9.46164C59.2319 8.12786 59.1832 6.70326 58.7012 5.39934C58.2192 4.09542 57.3296 2.98169 56.1643 2.2235C54.9991 1.46532 53.6205 1.1031 52.2331 1.19061C50.8457 1.27813 49.5235 1.81072 48.4628 2.70932L50.6146 5.24923C51.1289 4.81352 51.77 4.55529 52.4427 4.51285C53.1154 4.47042 53.7838 4.64605 54.3488 5.01367C54.9138 5.38129 55.3452 5.9213 55.5789 6.55354C55.8126 7.18577 55.8362 7.87651 55.6462 8.52322C55.4561 9.16993 55.0626 9.73813 54.5241 10.1434C53.9855 10.5488 53.3306 10.7696 52.6566 10.7732C51.9825 10.7768 51.3253 10.5629 50.7825 10.1633C50.2396 9.7637 49.8401 9.19972 49.6433 8.55506L46.4596 9.5273Z" fill="#2F2105"/>
<path d="M44 1.59495C44 5.94584 42.525 10.1185 39.8995 13.1951C37.274 16.2716 33.713 18 30 18C26.287 18 22.726 16.2716 20.1005 13.1951C17.475 10.1185 16 5.94584 16 1.59495C16 1.59495 24 5.18358 30 1.59495C36 -1.99369 44 1.59495 44 1.59495Z" fill="#FF912B"/>
<rect x="11" y="27" width="47" height="3" rx="1.5" fill="#2F2105"/>
<path d="M5.436 43.06C4.484 43.06 3.656 42.888 2.952 42.544C2.248 42.192 1.708 41.696 1.332 41.056C0.956 40.416 0.768 39.672 0.768 38.824C0.768 37.648 0.988 36.604 1.428 35.692C1.876 34.78 2.48 34.076 3.24 33.58C4 33.076 4.844 32.824 5.772 32.824C6.636 32.824 7.292 33.048 7.74 33.496C8.188 33.936 8.412 34.52 8.412 35.248C8.412 35.736 8.324 36.128 8.148 36.424C7.98 36.72 7.736 36.868 7.416 36.868C7.192 36.868 7.016 36.816 6.888 36.712C6.76 36.608 6.696 36.456 6.696 36.256C6.696 36.184 6.712 36.052 6.744 35.86C6.792 35.62 6.816 35.428 6.816 35.284C6.816 34.556 6.428 34.192 5.652 34.192C5.124 34.192 4.62 34.364 4.14 34.708C3.66 35.052 3.272 35.56 2.976 36.232C2.68 36.896 2.532 37.688 2.532 38.608C2.532 39.568 2.8 40.312 3.336 40.84C3.872 41.36 4.664 41.62 5.712 41.62C6.232 41.62 6.756 41.556 7.284 41.428C7.82 41.292 8.412 41.088 9.06 40.816C9.18 40.768 9.28 40.744 9.36 40.744C9.488 40.744 9.584 40.792 9.648 40.888C9.712 40.984 9.744 41.108 9.744 41.26C9.744 41.748 9.48 42.108 8.952 42.34C8.384 42.588 7.792 42.772 7.176 42.892C6.568 43.004 5.988 43.06 5.436 43.06ZM10.2786 43.06C9.78256 43.06 9.38656 42.88 9.09056 42.52C8.79456 42.16 8.64656 41.688 8.64656 41.104C8.64656 40.464 8.79456 39.86 9.09056 39.292C9.38656 38.716 9.77856 38.256 10.2666 37.912C10.7626 37.56 11.2866 37.384 11.8386 37.384C12.0146 37.384 12.1306 37.42 12.1866 37.492C12.2506 37.556 12.3026 37.676 12.3426 37.852C12.5106 37.82 12.6866 37.804 12.8706 37.804C13.2626 37.804 13.4586 37.944 13.4586 38.224C13.4586 38.392 13.3986 38.792 13.2786 39.424C13.0946 40.344 13.0026 40.984 13.0026 41.344C13.0026 41.464 13.0306 41.56 13.0866 41.632C13.1506 41.704 13.2306 41.74 13.3266 41.74C13.4786 41.74 13.6626 41.644 13.8786 41.452C14.0946 41.252 14.3866 40.932 14.7546 40.492C14.8506 40.38 14.9586 40.324 15.0786 40.324C15.1826 40.324 15.2626 40.372 15.3186 40.468C15.3826 40.564 15.4146 40.696 15.4146 40.864C15.4146 41.184 15.3386 41.432 15.1866 41.608C14.8586 42.016 14.5106 42.36 14.1426 42.64C13.7746 42.92 13.4186 43.06 13.0746 43.06C12.8106 43.06 12.5666 42.972 12.3426 42.796C12.1266 42.612 11.9626 42.364 11.8506 42.052C11.4346 42.724 10.9106 43.06 10.2786 43.06ZM10.7106 41.848C10.8866 41.848 11.0546 41.744 11.2146 41.536C11.3746 41.328 11.4906 41.052 11.5626 40.708L12.0066 38.5C11.6706 38.508 11.3586 38.636 11.0706 38.884C10.7906 39.124 10.5666 39.444 10.3986 39.844C10.2306 40.244 10.1466 40.668 10.1466 41.116C10.1466 41.364 10.1946 41.548 10.2906 41.668C10.3946 41.788 10.5346 41.848 10.7106 41.848ZM19.1101 39.64C19.3341 39.64 19.4461 39.808 19.4461 40.144C19.4461 40.776 18.9501 41.092 17.9581 41.092C17.7661 41.092 17.4901 41.056 17.1301 40.984C17.2341 41.48 17.3181 42.032 17.3821 42.64C17.4541 43.24 17.4901 43.736 17.4901 44.128C17.4901 44.992 17.3501 45.652 17.0701 46.108C16.7901 46.564 16.4221 46.792 15.9661 46.792C15.3901 46.792 14.9781 46.384 14.7301 45.568C14.4901 44.752 14.3701 43.52 14.3701 41.872C14.3701 40.336 14.5341 38.78 14.8621 37.204C15.1981 35.62 15.6541 34.312 16.2301 33.28C16.8141 32.24 17.4541 31.72 18.1501 31.72C18.5261 31.72 18.8181 31.888 19.0261 32.224C19.2421 32.56 19.3501 33.012 19.3501 33.58C19.3501 35.46 18.2261 37.508 15.9781 39.724C15.8981 40.508 15.8581 41.196 15.8581 41.788C15.8581 42.612 15.8861 43.456 15.9421 44.32C15.9981 45.192 16.0901 45.628 16.2181 45.628C16.4581 45.628 16.5781 45.212 16.5781 44.38C16.5781 43.756 16.5341 43.152 16.4461 42.568C16.3661 41.984 16.2541 41.368 16.1101 40.72C16.1021 40.616 16.1341 40.484 16.2061 40.324C16.2861 40.164 16.3821 40.024 16.4941 39.904C16.6061 39.784 16.7061 39.724 16.7941 39.724C16.9541 39.724 17.1461 39.732 17.3701 39.748C17.4421 39.756 17.5261 39.76 17.6221 39.76C17.9421 39.76 18.2981 39.732 18.6901 39.676C18.7541 39.668 18.8221 39.66 18.8941 39.652C18.9661 39.644 19.0381 39.64 19.1101 39.64ZM17.8981 32.908C17.7541 32.908 17.5741 33.152 17.3581 33.64C17.1501 34.128 16.9421 34.776 16.7341 35.584C16.5261 36.384 16.3461 37.232 16.1941 38.128C16.8341 37.4 17.3261 36.644 17.6701 35.86C18.0141 35.068 18.1901 34.328 18.1981 33.64C18.1981 33.152 18.0981 32.908 17.8981 32.908ZM22.8368 40.684C22.9408 40.684 23.0208 40.732 23.0768 40.828C23.1408 40.924 23.1728 41.056 23.1728 41.224C23.1728 41.512 23.1048 41.76 22.9688 41.968C22.7448 42.312 22.4488 42.58 22.0808 42.772C21.7208 42.964 21.2888 43.06 20.7848 43.06C20.0168 43.06 19.4208 42.832 18.9968 42.376C18.5728 41.912 18.3608 41.288 18.3608 40.504C18.3608 39.952 18.4768 39.44 18.7088 38.968C18.9408 38.488 19.2608 38.108 19.6688 37.828C20.0848 37.548 20.5528 37.408 21.0728 37.408C21.5368 37.408 21.9088 37.548 22.1888 37.828C22.4688 38.1 22.6088 38.472 22.6088 38.944C22.6088 39.496 22.4088 39.972 22.0088 40.372C21.6168 40.764 20.9448 41.076 19.9928 41.308C20.1848 41.676 20.5088 41.86 20.9648 41.86C21.2928 41.86 21.5608 41.784 21.7688 41.632C21.9848 41.48 22.2328 41.224 22.5128 40.864C22.6088 40.744 22.7168 40.684 22.8368 40.684ZM20.8688 38.584C20.5728 38.584 20.3208 38.756 20.1128 39.1C19.9128 39.444 19.8128 39.86 19.8128 40.348V40.372C20.2848 40.26 20.6568 40.092 20.9288 39.868C21.2008 39.644 21.3368 39.384 21.3368 39.088C21.3368 38.936 21.2928 38.816 21.2048 38.728C21.1248 38.632 21.0128 38.584 20.8688 38.584ZM21.1808 36.616C21.0688 36.616 20.9688 36.576 20.8808 36.496C20.8008 36.408 20.7608 36.304 20.7608 36.184C20.7608 36.128 20.7808 36.052 20.8208 35.956L21.9368 33.46C22.0088 33.3 22.1008 33.184 22.2128 33.112C22.3328 33.032 22.4648 32.992 22.6088 32.992C22.8088 32.992 22.9848 33.064 23.1368 33.208C23.2968 33.352 23.3768 33.532 23.3768 33.748C23.3768 33.972 23.2888 34.196 23.1128 34.42L21.5648 36.412C21.4608 36.548 21.3328 36.616 21.1808 36.616Z" fill="#FF912B"/>
<path d="M31.5102 43.06C30.5582 43.06 29.7302 42.888 29.0262 42.544C28.3222 42.192 27.7822 41.696 27.4062 41.056C27.0302 40.416 26.8422 39.672 26.8422 38.824C26.8422 37.648 27.0622 36.604 27.5022 35.692C27.9502 34.78 28.5542 34.076 29.3142 33.58C30.0742 33.076 30.9182 32.824 31.8462 32.824C32.7102 32.824 33.3662 33.048 33.8142 33.496C34.2622 33.936 34.4862 34.52 34.4862 35.248C34.4862 35.736 34.3982 36.128 34.2222 36.424C34.0542 36.72 33.8102 36.868 33.4902 36.868C33.2662 36.868 33.0902 36.816 32.9622 36.712C32.8342 36.608 32.7702 36.456 32.7702 36.256C32.7702 36.184 32.7862 36.052 32.8182 35.86C32.8662 35.62 32.8902 35.428 32.8902 35.284C32.8902 34.556 32.5022 34.192 31.7262 34.192C31.1982 34.192 30.6942 34.364 30.2142 34.708C29.7342 35.052 29.3462 35.56 29.0502 36.232C28.7542 36.896 28.6062 37.688 28.6062 38.608C28.6062 39.568 28.8742 40.312 29.4102 40.84C29.9462 41.36 30.7382 41.62 31.7862 41.62C32.3062 41.62 32.8302 41.556 33.3582 41.428C33.8942 41.292 34.4862 41.088 35.1342 40.816C35.2542 40.768 35.3542 40.744 35.4342 40.744C35.5622 40.744 35.6582 40.792 35.7222 40.888C35.7862 40.984 35.8182 41.108 35.8182 41.26C35.8182 41.748 35.5542 42.108 35.0262 42.34C34.4582 42.588 33.8662 42.772 33.2502 42.892C32.6422 43.004 32.0622 43.06 31.5102 43.06ZM35.7288 43.06C35.4248 43.06 35.2088 42.9 35.0808 42.58C34.9608 42.26 34.9008 41.748 34.9008 41.044C34.9008 40.004 35.0488 39.016 35.3448 38.08C35.4168 37.848 35.5328 37.68 35.6928 37.576C35.8608 37.464 36.0928 37.408 36.3888 37.408C36.5488 37.408 36.6608 37.428 36.7248 37.468C36.7888 37.508 36.8208 37.584 36.8208 37.696C36.8208 37.824 36.7608 38.112 36.6408 38.56C36.5608 38.88 36.4968 39.16 36.4488 39.4C36.4008 39.64 36.3608 39.936 36.3288 40.288C36.5928 39.6 36.8888 39.04 37.2168 38.608C37.5448 38.176 37.8648 37.868 38.1768 37.684C38.4968 37.5 38.7888 37.408 39.0528 37.408C39.5728 37.408 39.8328 37.668 39.8328 38.188C39.8328 38.292 39.7968 38.544 39.7248 38.944C39.6608 39.264 39.6288 39.464 39.6288 39.544C39.6288 39.824 39.7288 39.964 39.9288 39.964C40.1528 39.964 40.4408 39.788 40.7928 39.436C40.8968 39.332 41.0048 39.28 41.1168 39.28C41.2208 39.28 41.3008 39.328 41.3568 39.424C41.4208 39.512 41.4528 39.632 41.4528 39.784C41.4528 40.08 41.3728 40.312 41.2128 40.48C40.9888 40.712 40.7248 40.912 40.4208 41.08C40.1248 41.24 39.8088 41.32 39.4728 41.32C39.0488 41.32 38.7248 41.212 38.5008 40.996C38.2848 40.78 38.1768 40.488 38.1768 40.12C38.1768 40 38.1888 39.88 38.2128 39.76C38.2288 39.6 38.2368 39.492 38.2368 39.436C38.2368 39.308 38.1928 39.244 38.1048 39.244C37.9848 39.244 37.8248 39.38 37.6248 39.652C37.4328 39.916 37.2408 40.268 37.0488 40.708C36.8568 41.148 36.7008 41.612 36.5808 42.1C36.4928 42.476 36.3888 42.732 36.2688 42.868C36.1568 42.996 35.9768 43.06 35.7288 43.06ZM41.8137 43.06C41.3177 43.06 40.9217 42.88 40.6257 42.52C40.3297 42.16 40.1817 41.688 40.1817 41.104C40.1817 40.464 40.3297 39.86 40.6257 39.292C40.9217 38.716 41.3137 38.256 41.8017 37.912C42.2977 37.56 42.8217 37.384 43.3737 37.384C43.5497 37.384 43.6657 37.42 43.7217 37.492C43.7857 37.556 43.8377 37.676 43.8777 37.852C44.0457 37.82 44.2217 37.804 44.4057 37.804C44.7977 37.804 44.9937 37.944 44.9937 38.224C44.9937 38.392 44.9337 38.792 44.8137 39.424C44.6297 40.344 44.5377 40.984 44.5377 41.344C44.5377 41.464 44.5657 41.56 44.6217 41.632C44.6857 41.704 44.7657 41.74 44.8617 41.74C45.0137 41.74 45.1977 41.644 45.4137 41.452C45.6297 41.252 45.9217 40.932 46.2897 40.492C46.3857 40.38 46.4937 40.324 46.6137 40.324C46.7177 40.324 46.7977 40.372 46.8537 40.468C46.9177 40.564 46.9497 40.696 46.9497 40.864C46.9497 41.184 46.8737 41.432 46.7217 41.608C46.3937 42.016 46.0457 42.36 45.6777 42.64C45.3097 42.92 44.9537 43.06 44.6097 43.06C44.3457 43.06 44.1017 42.972 43.8777 42.796C43.6617 42.612 43.4977 42.364 43.3857 42.052C42.9697 42.724 42.4457 43.06 41.8137 43.06ZM42.2457 41.848C42.4217 41.848 42.5897 41.744 42.7497 41.536C42.9097 41.328 43.0257 41.052 43.0977 40.708L43.5417 38.5C43.2057 38.508 42.8937 38.636 42.6057 38.884C42.3257 39.124 42.1017 39.444 41.9337 39.844C41.7657 40.244 41.6817 40.668 41.6817 41.116C41.6817 41.364 41.7297 41.548 41.8257 41.668C41.9297 41.788 42.0697 41.848 42.2457 41.848ZM46.8264 43.06C46.5224 43.06 46.3064 42.9 46.1784 42.58C46.0584 42.26 45.9984 41.748 45.9984 41.044C45.9984 40.004 46.1464 39.016 46.4424 38.08C46.5144 37.848 46.6304 37.68 46.7904 37.576C46.9584 37.464 47.1904 37.408 47.4864 37.408C47.6464 37.408 47.7584 37.428 47.8224 37.468C47.8864 37.508 47.9184 37.584 47.9184 37.696C47.9184 37.824 47.8584 38.112 47.7384 38.56C47.6584 38.88 47.5944 39.16 47.5464 39.4C47.4984 39.632 47.4584 39.924 47.4264 40.276C47.6424 39.652 47.8984 39.124 48.1944 38.692C48.4984 38.26 48.8064 37.94 49.1184 37.732C49.4384 37.516 49.7384 37.408 50.0184 37.408C50.2984 37.408 50.4944 37.472 50.6064 37.6C50.7264 37.728 50.7864 37.924 50.7864 38.188C50.7864 38.444 50.7104 38.908 50.5584 39.58C50.4944 39.868 50.4504 40.084 50.4264 40.228C50.8264 39.244 51.2704 38.528 51.7584 38.08C52.2464 37.632 52.7024 37.408 53.1264 37.408C53.6464 37.408 53.9064 37.668 53.9064 38.188C53.9064 38.5 53.8184 39.064 53.6424 39.88C53.4904 40.576 53.4144 41.036 53.4144 41.26C53.4144 41.58 53.5304 41.74 53.7624 41.74C53.9224 41.74 54.1104 41.644 54.3264 41.452C54.5504 41.252 54.8464 40.932 55.2144 40.492C55.3104 40.38 55.4184 40.324 55.5384 40.324C55.6424 40.324 55.7224 40.372 55.7784 40.468C55.8424 40.564 55.8744 40.696 55.8744 40.864C55.8744 41.184 55.7984 41.432 55.6464 41.608C55.3024 42.032 54.9304 42.38 54.5304 42.652C54.1384 42.924 53.6904 43.06 53.1864 43.06C52.7784 43.06 52.4704 42.944 52.2624 42.712C52.0544 42.472 51.9504 42.128 51.9504 41.68C51.9504 41.456 52.0064 41.056 52.1184 40.48C52.2224 39.976 52.2744 39.628 52.2744 39.436C52.2744 39.308 52.2304 39.244 52.1424 39.244C52.0384 39.244 51.8904 39.38 51.6984 39.652C51.5064 39.916 51.3144 40.268 51.1224 40.708C50.9304 41.148 50.7744 41.612 50.6544 42.1C50.5664 42.484 50.4624 42.74 50.3424 42.868C50.2304 42.996 50.0464 43.06 49.7904 43.06C49.5264 43.06 49.3264 42.936 49.1904 42.688C49.0624 42.432 48.9984 42.124 48.9984 41.764C48.9984 41.46 49.0384 41.02 49.1184 40.444C49.1824 39.932 49.2144 39.596 49.2144 39.436C49.2144 39.308 49.1704 39.244 49.0824 39.244C48.9624 39.244 48.8104 39.388 48.6264 39.676C48.4424 39.964 48.2624 40.332 48.0864 40.78C47.9184 41.228 47.7824 41.668 47.6784 42.1C47.5904 42.476 47.4864 42.732 47.3664 42.868C47.2544 42.996 47.0744 43.06 46.8264 43.06ZM61.3121 40.324C61.4161 40.324 61.4961 40.372 61.5521 40.468C61.6161 40.564 61.6481 40.696 61.6481 40.864C61.6481 41.184 61.5721 41.432 61.4201 41.608C61.0761 42.032 60.7041 42.38 60.3041 42.652C59.9121 42.924 59.4641 43.06 58.9601 43.06C58.5361 43.06 58.1921 42.908 57.9281 42.604C57.4721 42.9 56.9961 43.052 56.5001 43.06C56.3961 44.604 56.1601 45.892 55.7921 46.924C55.4241 47.964 54.8841 48.484 54.1721 48.484C53.7401 48.484 53.4201 48.328 53.2121 48.016C53.0041 47.704 52.9001 47.272 52.9001 46.72C52.9001 45.936 53.0801 45.02 53.4401 43.972C53.8001 42.932 54.3561 41.784 55.1081 40.528C55.1081 39.36 55.1001 38.548 55.0841 38.092C55.0761 37.86 55.1681 37.676 55.3601 37.54C55.5521 37.404 55.7921 37.336 56.0801 37.336C56.2481 37.336 56.3681 37.372 56.4401 37.444C56.5201 37.508 56.5641 37.64 56.5721 37.84C56.5721 38.04 56.5761 38.188 56.5841 38.284C56.8401 37.964 57.0921 37.736 57.3401 37.6C57.5881 37.456 57.8521 37.384 58.1321 37.384C58.5801 37.384 58.9441 37.564 59.2241 37.924C59.5121 38.284 59.6561 38.756 59.6561 39.34C59.6561 39.764 59.5881 40.176 59.4521 40.576C59.3161 40.976 59.1281 41.34 58.8881 41.668C59.0561 41.716 59.1961 41.74 59.3081 41.74C59.5721 41.74 59.8241 41.644 60.0641 41.452C60.3041 41.26 60.6121 40.94 60.9881 40.492C61.0841 40.38 61.1921 40.324 61.3121 40.324ZM56.5601 41.908C56.8481 41.844 57.1121 41.688 57.3521 41.44C57.6001 41.184 57.7961 40.872 57.9401 40.504C58.0841 40.128 58.1561 39.736 58.1561 39.328C58.1561 39.088 58.1081 38.908 58.0121 38.788C57.9161 38.66 57.7881 38.596 57.6281 38.596C57.3401 38.596 56.9921 38.9 56.5841 39.508C56.5761 39.86 56.5721 40.376 56.5721 41.056C56.5721 41.424 56.5681 41.708 56.5601 41.908ZM54.2681 47.308C54.4841 47.308 54.6641 46.836 54.8081 45.892C54.9521 44.956 55.0441 43.788 55.0841 42.388C54.7401 43.188 54.4681 43.952 54.2681 44.68C54.0681 45.408 53.9681 46.02 53.9681 46.516C53.9681 46.772 54.0001 46.968 54.0641 47.104C54.1201 47.24 54.1881 47.308 54.2681 47.308ZM66.0335 40.324C66.1375 40.324 66.2175 40.372 66.2735 40.468C66.3375 40.564 66.3695 40.696 66.3695 40.864C66.3695 41.184 66.2935 41.432 66.1415 41.608C65.7975 42.032 65.4215 42.38 65.0135 42.652C64.6055 42.924 64.1375 43.06 63.6095 43.06C61.9775 43.06 61.1615 41.912 61.1615 39.616C61.1615 39.264 61.1735 38.908 61.1975 38.548H60.7295C60.4895 38.548 60.3255 38.504 60.2375 38.416C60.1575 38.328 60.1175 38.188 60.1175 37.996C60.1175 37.548 60.2975 37.324 60.6575 37.324H61.3415C61.4775 36.444 61.6855 35.64 61.9655 34.912C62.2455 34.184 62.5815 33.604 62.9735 33.172C63.3735 32.74 63.8015 32.524 64.2575 32.524C64.5935 32.524 64.8575 32.672 65.0495 32.968C65.2415 33.264 65.3375 33.636 65.3375 34.084C65.3375 35.324 64.8175 36.404 63.7775 37.324H65.1215C65.2495 37.324 65.3415 37.352 65.3975 37.408C65.4535 37.464 65.4815 37.568 65.4815 37.72C65.4815 38.272 65.0295 38.548 64.1255 38.548H62.6615C62.6455 38.948 62.6375 39.26 62.6375 39.484C62.6375 40.316 62.7335 40.9 62.9255 41.236C63.1255 41.572 63.4375 41.74 63.8615 41.74C64.2055 41.74 64.5095 41.636 64.7735 41.428C65.0375 41.22 65.3495 40.908 65.7095 40.492C65.8055 40.38 65.9135 40.324 66.0335 40.324ZM63.9335 33.676C63.8135 33.676 63.6775 33.828 63.5255 34.132C63.3815 34.428 63.2415 34.844 63.1055 35.38C62.9775 35.908 62.8695 36.496 62.7815 37.144C63.2535 36.736 63.6055 36.28 63.8375 35.776C64.0775 35.264 64.1975 34.8 64.1975 34.384C64.1975 33.912 64.1095 33.676 63.9335 33.676ZM69.6884 40.684C69.7924 40.684 69.8724 40.732 69.9284 40.828C69.9924 40.924 70.0244 41.056 70.0244 41.224C70.0244 41.512 69.9564 41.76 69.8204 41.968C69.5964 42.312 69.3004 42.58 68.9324 42.772C68.5724 42.964 68.1404 43.06 67.6364 43.06C66.8684 43.06 66.2724 42.832 65.8484 42.376C65.4244 41.912 65.2124 41.288 65.2124 40.504C65.2124 39.952 65.3284 39.44 65.5604 38.968C65.7924 38.488 66.1124 38.108 66.5204 37.828C66.9364 37.548 67.4044 37.408 67.9244 37.408C68.3884 37.408 68.7604 37.548 69.0404 37.828C69.3204 38.1 69.4604 38.472 69.4604 38.944C69.4604 39.496 69.2604 39.972 68.8604 40.372C68.4684 40.764 67.7964 41.076 66.8444 41.308C67.0364 41.676 67.3604 41.86 67.8164 41.86C68.1444 41.86 68.4124 41.784 68.6204 41.632C68.8364 41.48 69.0844 41.224 69.3644 40.864C69.4604 40.744 69.5684 40.684 69.6884 40.684ZM67.7204 38.584C67.4244 38.584 67.1724 38.756 66.9644 39.1C66.7644 39.444 66.6644 39.86 66.6644 40.348V40.372C67.1364 40.26 67.5084 40.092 67.7804 39.868C68.0524 39.644 68.1884 39.384 68.1884 39.088C68.1884 38.936 68.1444 38.816 68.0564 38.728C67.9764 38.632 67.8644 38.584 67.7204 38.584ZM68.0324 36.616C67.9204 36.616 67.8204 36.576 67.7324 36.496C67.6524 36.408 67.6124 36.304 67.6124 36.184C67.6124 36.128 67.6324 36.052 67.6724 35.956L68.7884 33.46C68.8604 33.3 68.9524 33.184 69.0644 33.112C69.1844 33.032 69.3164 32.992 69.4604 32.992C69.6604 32.992 69.8364 33.064 69.9884 33.208C70.1484 33.352 70.2284 33.532 70.2284 33.748C70.2284 33.972 70.1404 34.196 69.9644 34.42L68.4164 36.412C68.3124 36.548 68.1844 36.616 68.0324 36.616Z" fill="#2F2105"/>
</svg>
