<svg width="110" height="22" viewBox="0 0 110 22" fill="none" xmlns="http://www.w3.org/2000/svg">
<path d="M30.0598 1.10001C30.0598 5.47608 28.5935 9.90001 26.394 12.7673C23.4613 15.7667 23.4613 17.6 15.0462 17.6C6.63108 17.6 6.5985 16.2177 3.3816 12.7673C0.164693 9.31679 6.60618e-07 5.84274 0 1.46667H2.93267C2.93267 7.7 5.45391 10.6945 5.45391 10.6945C5.45391 10.6945 7.71454 14.6686 15.0462 14.6686C22.3779 14.6686 24.1945 10.6945 24.1945 10.6945C24.1945 10.6945 26.7108 6.23334 26.7108 1.10001H30.0598Z" fill="#2F2105"/>
<path d="M26.7309 6.98668C27.0286 7.96168 27.6327 8.81467 28.4535 9.41902C29.2743 10.0234 30.2681 10.3469 31.2873 10.3414C32.3065 10.336 33.2968 10.002 34.1112 9.38901C34.9255 8.77598 35.5205 7.91663 35.8078 6.93853C36.0952 5.96042 36.0595 4.91572 35.7061 3.95951C35.3527 3.0033 34.7005 2.18656 33.8462 1.63056C32.9919 1.07456 31.9811 0.808929 30.9639 0.873109C29.9467 0.937289 28.9773 1.32786 28.1997 1.98683L29.7773 3.84942C30.1543 3.52991 30.6243 3.34053 31.1176 3.30942C31.6108 3.2783 32.1009 3.40709 32.5151 3.67668C32.9293 3.94627 33.2456 4.34228 33.4169 4.80592C33.5882 5.26956 33.6056 5.7761 33.4662 6.25036C33.3269 6.72461 33.0384 7.14128 32.6436 7.43852C32.2487 7.73576 31.7685 7.89771 31.2744 7.90033C30.7802 7.90295 30.2983 7.7461 29.9003 7.45307C29.5023 7.16004 29.2094 6.74645 29.0651 6.2737L26.7309 6.98668Z" fill="#2F2105"/>
<path d="M24.9277 1.16963C24.9277 4.36028 23.8462 7.42025 21.9213 9.67639C19.9964 11.9325 17.3856 13.2 14.6633 13.2C11.941 13.2 9.33028 11.9325 7.40534 9.67639C5.48041 7.42025 4.39899 4.36028 4.39899 1.16963C4.39899 1.16963 10.2643 3.8013 14.6633 1.16963C19.0623 -1.46204 24.9277 1.16963 24.9277 1.16963Z" fill="#FF912B"/>
<rect x="0.733154" y="19.8" width="34.4588" height="2.2" rx="1.1" fill="#2F2105"/>
<path d="M44.436 16.06C43.484 16.06 42.656 15.888 41.952 15.544C41.248 15.192 40.708 14.696 40.332 14.056C39.956 13.416 39.768 12.672 39.768 11.824C39.768 10.648 39.988 9.604 40.428 8.692C40.876 7.78 41.48 7.076 42.24 6.58C43 6.076 43.844 5.824 44.772 5.824C45.636 5.824 46.292 6.048 46.74 6.496C47.188 6.936 47.412 7.52 47.412 8.248C47.412 8.736 47.324 9.128 47.148 9.424C46.98 9.72 46.736 9.868 46.416 9.868C46.192 9.868 46.016 9.816 45.888 9.712C45.76 9.608 45.696 9.456 45.696 9.256C45.696 9.184 45.712 9.052 45.744 8.86C45.792 8.62 45.816 8.428 45.816 8.284C45.816 7.556 45.428 7.192 44.652 7.192C44.124 7.192 43.62 7.364 43.14 7.708C42.66 8.052 42.272 8.56 41.976 9.232C41.68 9.896 41.532 10.688 41.532 11.608C41.532 12.568 41.8 13.312 42.336 13.84C42.872 14.36 43.664 14.62 44.712 14.62C45.232 14.62 45.756 14.556 46.284 14.428C46.82 14.292 47.412 14.088 48.06 13.816C48.18 13.768 48.28 13.744 48.36 13.744C48.488 13.744 48.584 13.792 48.648 13.888C48.712 13.984 48.744 14.108 48.744 14.26C48.744 14.748 48.48 15.108 47.952 15.34C47.384 15.588 46.792 15.772 46.176 15.892C45.568 16.004 44.988 16.06 44.436 16.06ZM49.2786 16.06C48.7826 16.06 48.3866 15.88 48.0906 15.52C47.7946 15.16 47.6466 14.688 47.6466 14.104C47.6466 13.464 47.7946 12.86 48.0906 12.292C48.3866 11.716 48.7786 11.256 49.2666 10.912C49.7626 10.56 50.2866 10.384 50.8386 10.384C51.0146 10.384 51.1306 10.42 51.1866 10.492C51.2506 10.556 51.3026 10.676 51.3426 10.852C51.5106 10.82 51.6866 10.804 51.8706 10.804C52.2626 10.804 52.4586 10.944 52.4586 11.224C52.4586 11.392 52.3986 11.792 52.2786 12.424C52.0946 13.344 52.0026 13.984 52.0026 14.344C52.0026 14.464 52.0306 14.56 52.0866 14.632C52.1506 14.704 52.2306 14.74 52.3266 14.74C52.4786 14.74 52.6626 14.644 52.8786 14.452C53.0946 14.252 53.3866 13.932 53.7546 13.492C53.8506 13.38 53.9586 13.324 54.0786 13.324C54.1826 13.324 54.2626 13.372 54.3186 13.468C54.3826 13.564 54.4146 13.696 54.4146 13.864C54.4146 14.184 54.3386 14.432 54.1866 14.608C53.8586 15.016 53.5106 15.36 53.1426 15.64C52.7746 15.92 52.4186 16.06 52.0746 16.06C51.8106 16.06 51.5666 15.972 51.3426 15.796C51.1266 15.612 50.9626 15.364 50.8506 15.052C50.4346 15.724 49.9106 16.06 49.2786 16.06ZM49.7106 14.848C49.8866 14.848 50.0546 14.744 50.2146 14.536C50.3746 14.328 50.4906 14.052 50.5626 13.708L51.0066 11.5C50.6706 11.508 50.3586 11.636 50.0706 11.884C49.7906 12.124 49.5666 12.444 49.3986 12.844C49.2306 13.244 49.1466 13.668 49.1466 14.116C49.1466 14.364 49.1946 14.548 49.2906 14.668C49.3946 14.788 49.5346 14.848 49.7106 14.848ZM58.1101 12.64C58.3341 12.64 58.4461 12.808 58.4461 13.144C58.4461 13.776 57.9501 14.092 56.9581 14.092C56.7661 14.092 56.4901 14.056 56.1301 13.984C56.2341 14.48 56.3181 15.032 56.3821 15.64C56.4541 16.24 56.4901 16.736 56.4901 17.128C56.4901 17.992 56.3501 18.652 56.0701 19.108C55.7901 19.564 55.4221 19.792 54.9661 19.792C54.3901 19.792 53.9781 19.384 53.7301 18.568C53.4901 17.752 53.3701 16.52 53.3701 14.872C53.3701 13.336 53.5341 11.78 53.8621 10.204C54.1981 8.62 54.6541 7.312 55.2301 6.28C55.8141 5.24 56.4541 4.72 57.1501 4.72C57.5261 4.72 57.8181 4.888 58.0261 5.224C58.2421 5.56 58.3501 6.012 58.3501 6.58C58.3501 8.46 57.2261 10.508 54.9781 12.724C54.8981 13.508 54.8581 14.196 54.8581 14.788C54.8581 15.612 54.8861 16.456 54.9421 17.32C54.9981 18.192 55.0901 18.628 55.2181 18.628C55.4581 18.628 55.5781 18.212 55.5781 17.38C55.5781 16.756 55.5341 16.152 55.4461 15.568C55.3661 14.984 55.2541 14.368 55.1101 13.72C55.1021 13.616 55.1341 13.484 55.2061 13.324C55.2861 13.164 55.3821 13.024 55.4941 12.904C55.6061 12.784 55.7061 12.724 55.7941 12.724C55.9541 12.724 56.1461 12.732 56.3701 12.748C56.4421 12.756 56.5261 12.76 56.6221 12.76C56.9421 12.76 57.2981 12.732 57.6901 12.676C57.7541 12.668 57.8221 12.66 57.8941 12.652C57.9661 12.644 58.0381 12.64 58.1101 12.64ZM56.8981 5.908C56.7541 5.908 56.5741 6.152 56.3581 6.64C56.1501 7.128 55.9421 7.776 55.7341 8.584C55.5261 9.384 55.3461 10.232 55.1941 11.128C55.8341 10.4 56.3261 9.644 56.6701 8.86C57.0141 8.068 57.1901 7.328 57.1981 6.64C57.1981 6.152 57.0981 5.908 56.8981 5.908ZM61.8368 13.684C61.9408 13.684 62.0208 13.732 62.0768 13.828C62.1408 13.924 62.1728 14.056 62.1728 14.224C62.1728 14.512 62.1048 14.76 61.9688 14.968C61.7448 15.312 61.4488 15.58 61.0808 15.772C60.7208 15.964 60.2888 16.06 59.7848 16.06C59.0168 16.06 58.4208 15.832 57.9968 15.376C57.5728 14.912 57.3608 14.288 57.3608 13.504C57.3608 12.952 57.4768 12.44 57.7088 11.968C57.9408 11.488 58.2608 11.108 58.6688 10.828C59.0848 10.548 59.5528 10.408 60.0728 10.408C60.5368 10.408 60.9088 10.548 61.1888 10.828C61.4688 11.1 61.6088 11.472 61.6088 11.944C61.6088 12.496 61.4088 12.972 61.0088 13.372C60.6168 13.764 59.9448 14.076 58.9928 14.308C59.1848 14.676 59.5088 14.86 59.9648 14.86C60.2928 14.86 60.5608 14.784 60.7688 14.632C60.9848 14.48 61.2328 14.224 61.5128 13.864C61.6088 13.744 61.7168 13.684 61.8368 13.684ZM59.8688 11.584C59.5728 11.584 59.3208 11.756 59.1128 12.1C58.9128 12.444 58.8128 12.86 58.8128 13.348V13.372C59.2848 13.26 59.6568 13.092 59.9288 12.868C60.2008 12.644 60.3368 12.384 60.3368 12.088C60.3368 11.936 60.2928 11.816 60.2048 11.728C60.1248 11.632 60.0128 11.584 59.8688 11.584ZM60.1808 9.616C60.0688 9.616 59.9688 9.576 59.8808 9.496C59.8008 9.408 59.7608 9.304 59.7608 9.184C59.7608 9.128 59.7808 9.052 59.8208 8.956L60.9368 6.46C61.0088 6.3 61.1008 6.184 61.2128 6.112C61.3328 6.032 61.4648 5.992 61.6088 5.992C61.8088 5.992 61.9848 6.064 62.1368 6.208C62.2968 6.352 62.3768 6.532 62.3768 6.748C62.3768 6.972 62.2888 7.196 62.1128 7.42L60.5648 9.412C60.4608 9.548 60.3328 9.616 60.1808 9.616Z" fill="#FF912B"/>
<path d="M70.5102 16.06C69.5582 16.06 68.7302 15.888 68.0262 15.544C67.3222 15.192 66.7822 14.696 66.4062 14.056C66.0302 13.416 65.8422 12.672 65.8422 11.824C65.8422 10.648 66.0622 9.604 66.5022 8.692C66.9502 7.78 67.5542 7.076 68.3142 6.58C69.0742 6.076 69.9182 5.824 70.8462 5.824C71.7102 5.824 72.3662 6.048 72.8142 6.496C73.2622 6.936 73.4862 7.52 73.4862 8.248C73.4862 8.736 73.3982 9.128 73.2222 9.424C73.0542 9.72 72.8102 9.868 72.4902 9.868C72.2662 9.868 72.0902 9.816 71.9622 9.712C71.8342 9.608 71.7702 9.456 71.7702 9.256C71.7702 9.184 71.7862 9.052 71.8182 8.86C71.8662 8.62 71.8902 8.428 71.8902 8.284C71.8902 7.556 71.5022 7.192 70.7262 7.192C70.1982 7.192 69.6942 7.364 69.2142 7.708C68.7342 8.052 68.3462 8.56 68.0502 9.232C67.7542 9.896 67.6062 10.688 67.6062 11.608C67.6062 12.568 67.8742 13.312 68.4102 13.84C68.9462 14.36 69.7382 14.62 70.7862 14.62C71.3062 14.62 71.8302 14.556 72.3582 14.428C72.8942 14.292 73.4862 14.088 74.1342 13.816C74.2542 13.768 74.3542 13.744 74.4342 13.744C74.5622 13.744 74.6582 13.792 74.7222 13.888C74.7862 13.984 74.8182 14.108 74.8182 14.26C74.8182 14.748 74.5542 15.108 74.0262 15.34C73.4582 15.588 72.8662 15.772 72.2502 15.892C71.6422 16.004 71.0622 16.06 70.5102 16.06ZM74.7288 16.06C74.4248 16.06 74.2088 15.9 74.0808 15.58C73.9608 15.26 73.9008 14.748 73.9008 14.044C73.9008 13.004 74.0488 12.016 74.3448 11.08C74.4168 10.848 74.5328 10.68 74.6928 10.576C74.8608 10.464 75.0928 10.408 75.3888 10.408C75.5488 10.408 75.6608 10.428 75.7248 10.468C75.7888 10.508 75.8208 10.584 75.8208 10.696C75.8208 10.824 75.7608 11.112 75.6408 11.56C75.5608 11.88 75.4968 12.16 75.4488 12.4C75.4008 12.64 75.3608 12.936 75.3288 13.288C75.5928 12.6 75.8888 12.04 76.2168 11.608C76.5448 11.176 76.8648 10.868 77.1768 10.684C77.4968 10.5 77.7888 10.408 78.0528 10.408C78.5728 10.408 78.8328 10.668 78.8328 11.188C78.8328 11.292 78.7968 11.544 78.7248 11.944C78.6608 12.264 78.6288 12.464 78.6288 12.544C78.6288 12.824 78.7288 12.964 78.9288 12.964C79.1528 12.964 79.4408 12.788 79.7928 12.436C79.8968 12.332 80.0048 12.28 80.1168 12.28C80.2208 12.28 80.3008 12.328 80.3568 12.424C80.4208 12.512 80.4528 12.632 80.4528 12.784C80.4528 13.08 80.3728 13.312 80.2128 13.48C79.9888 13.712 79.7248 13.912 79.4208 14.08C79.1248 14.24 78.8088 14.32 78.4728 14.32C78.0488 14.32 77.7248 14.212 77.5008 13.996C77.2848 13.78 77.1768 13.488 77.1768 13.12C77.1768 13 77.1888 12.88 77.2128 12.76C77.2288 12.6 77.2368 12.492 77.2368 12.436C77.2368 12.308 77.1928 12.244 77.1048 12.244C76.9848 12.244 76.8248 12.38 76.6248 12.652C76.4328 12.916 76.2408 13.268 76.0488 13.708C75.8568 14.148 75.7008 14.612 75.5808 15.1C75.4928 15.476 75.3888 15.732 75.2688 15.868C75.1568 15.996 74.9768 16.06 74.7288 16.06ZM80.8137 16.06C80.3177 16.06 79.9217 15.88 79.6257 15.52C79.3297 15.16 79.1817 14.688 79.1817 14.104C79.1817 13.464 79.3297 12.86 79.6257 12.292C79.9217 11.716 80.3137 11.256 80.8017 10.912C81.2977 10.56 81.8217 10.384 82.3737 10.384C82.5497 10.384 82.6657 10.42 82.7217 10.492C82.7857 10.556 82.8377 10.676 82.8777 10.852C83.0457 10.82 83.2217 10.804 83.4057 10.804C83.7977 10.804 83.9937 10.944 83.9937 11.224C83.9937 11.392 83.9337 11.792 83.8137 12.424C83.6297 13.344 83.5377 13.984 83.5377 14.344C83.5377 14.464 83.5657 14.56 83.6217 14.632C83.6857 14.704 83.7657 14.74 83.8617 14.74C84.0137 14.74 84.1977 14.644 84.4137 14.452C84.6297 14.252 84.9217 13.932 85.2897 13.492C85.3857 13.38 85.4937 13.324 85.6137 13.324C85.7177 13.324 85.7977 13.372 85.8537 13.468C85.9177 13.564 85.9497 13.696 85.9497 13.864C85.9497 14.184 85.8737 14.432 85.7217 14.608C85.3937 15.016 85.0457 15.36 84.6777 15.64C84.3097 15.92 83.9537 16.06 83.6097 16.06C83.3457 16.06 83.1017 15.972 82.8777 15.796C82.6617 15.612 82.4977 15.364 82.3857 15.052C81.9697 15.724 81.4457 16.06 80.8137 16.06ZM81.2457 14.848C81.4217 14.848 81.5897 14.744 81.7497 14.536C81.9097 14.328 82.0257 14.052 82.0977 13.708L82.5417 11.5C82.2057 11.508 81.8937 11.636 81.6057 11.884C81.3257 12.124 81.1017 12.444 80.9337 12.844C80.7657 13.244 80.6817 13.668 80.6817 14.116C80.6817 14.364 80.7297 14.548 80.8257 14.668C80.9297 14.788 81.0697 14.848 81.2457 14.848ZM85.8264 16.06C85.5224 16.06 85.3064 15.9 85.1784 15.58C85.0584 15.26 84.9984 14.748 84.9984 14.044C84.9984 13.004 85.1464 12.016 85.4424 11.08C85.5144 10.848 85.6304 10.68 85.7904 10.576C85.9584 10.464 86.1904 10.408 86.4864 10.408C86.6464 10.408 86.7584 10.428 86.8224 10.468C86.8864 10.508 86.9184 10.584 86.9184 10.696C86.9184 10.824 86.8584 11.112 86.7384 11.56C86.6584 11.88 86.5944 12.16 86.5464 12.4C86.4984 12.632 86.4584 12.924 86.4264 13.276C86.6424 12.652 86.8984 12.124 87.1944 11.692C87.4984 11.26 87.8064 10.94 88.1184 10.732C88.4384 10.516 88.7384 10.408 89.0184 10.408C89.2984 10.408 89.4944 10.472 89.6064 10.6C89.7264 10.728 89.7864 10.924 89.7864 11.188C89.7864 11.444 89.7104 11.908 89.5584 12.58C89.4944 12.868 89.4504 13.084 89.4264 13.228C89.8264 12.244 90.2704 11.528 90.7584 11.08C91.2464 10.632 91.7024 10.408 92.1264 10.408C92.6464 10.408 92.9064 10.668 92.9064 11.188C92.9064 11.5 92.8184 12.064 92.6424 12.88C92.4904 13.576 92.4144 14.036 92.4144 14.26C92.4144 14.58 92.5304 14.74 92.7624 14.74C92.9224 14.74 93.1104 14.644 93.3264 14.452C93.5504 14.252 93.8464 13.932 94.2144 13.492C94.3104 13.38 94.4184 13.324 94.5384 13.324C94.6424 13.324 94.7224 13.372 94.7784 13.468C94.8424 13.564 94.8744 13.696 94.8744 13.864C94.8744 14.184 94.7984 14.432 94.6464 14.608C94.3024 15.032 93.9304 15.38 93.5304 15.652C93.1384 15.924 92.6904 16.06 92.1864 16.06C91.7784 16.06 91.4704 15.944 91.2624 15.712C91.0544 15.472 90.9504 15.128 90.9504 14.68C90.9504 14.456 91.0064 14.056 91.1184 13.48C91.2224 12.976 91.2744 12.628 91.2744 12.436C91.2744 12.308 91.2304 12.244 91.1424 12.244C91.0384 12.244 90.8904 12.38 90.6984 12.652C90.5064 12.916 90.3144 13.268 90.1224 13.708C89.9304 14.148 89.7744 14.612 89.6544 15.1C89.5664 15.484 89.4624 15.74 89.3424 15.868C89.2304 15.996 89.0464 16.06 88.7904 16.06C88.5264 16.06 88.3264 15.936 88.1904 15.688C88.0624 15.432 87.9984 15.124 87.9984 14.764C87.9984 14.46 88.0384 14.02 88.1184 13.444C88.1824 12.932 88.2144 12.596 88.2144 12.436C88.2144 12.308 88.1704 12.244 88.0824 12.244C87.9624 12.244 87.8104 12.388 87.6264 12.676C87.4424 12.964 87.2624 13.332 87.0864 13.78C86.9184 14.228 86.7824 14.668 86.6784 15.1C86.5904 15.476 86.4864 15.732 86.3664 15.868C86.2544 15.996 86.0744 16.06 85.8264 16.06ZM100.312 13.324C100.416 13.324 100.496 13.372 100.552 13.468C100.616 13.564 100.648 13.696 100.648 13.864C100.648 14.184 100.572 14.432 100.42 14.608C100.076 15.032 99.7041 15.38 99.3041 15.652C98.9121 15.924 98.4641 16.06 97.9601 16.06C97.5361 16.06 97.1921 15.908 96.9281 15.604C96.4721 15.9 95.9961 16.052 95.5001 16.06C95.3961 17.604 95.1601 18.892 94.7921 19.924C94.4241 20.964 93.8841 21.484 93.1721 21.484C92.7401 21.484 92.4201 21.328 92.2121 21.016C92.0041 20.704 91.9001 20.272 91.9001 19.72C91.9001 18.936 92.0801 18.02 92.4401 16.972C92.8001 15.932 93.3561 14.784 94.1081 13.528C94.1081 12.36 94.1001 11.548 94.0841 11.092C94.0761 10.86 94.1681 10.676 94.3601 10.54C94.5521 10.404 94.7921 10.336 95.0801 10.336C95.2481 10.336 95.3681 10.372 95.4401 10.444C95.5201 10.508 95.5641 10.64 95.5721 10.84C95.5721 11.04 95.5761 11.188 95.5841 11.284C95.8401 10.964 96.0921 10.736 96.3401 10.6C96.5881 10.456 96.8521 10.384 97.1321 10.384C97.5801 10.384 97.9441 10.564 98.2241 10.924C98.5121 11.284 98.6561 11.756 98.6561 12.34C98.6561 12.764 98.5881 13.176 98.4521 13.576C98.3161 13.976 98.1281 14.34 97.8881 14.668C98.0561 14.716 98.1961 14.74 98.3081 14.74C98.5721 14.74 98.8241 14.644 99.0641 14.452C99.3041 14.26 99.6121 13.94 99.9881 13.492C100.084 13.38 100.192 13.324 100.312 13.324ZM95.5601 14.908C95.8481 14.844 96.1121 14.688 96.3521 14.44C96.6001 14.184 96.7961 13.872 96.9401 13.504C97.0841 13.128 97.1561 12.736 97.1561 12.328C97.1561 12.088 97.1081 11.908 97.0121 11.788C96.9161 11.66 96.7881 11.596 96.6281 11.596C96.3401 11.596 95.9921 11.9 95.5841 12.508C95.5761 12.86 95.5721 13.376 95.5721 14.056C95.5721 14.424 95.5681 14.708 95.5601 14.908ZM93.2681 20.308C93.4841 20.308 93.6641 19.836 93.8081 18.892C93.9521 17.956 94.0441 16.788 94.0841 15.388C93.7401 16.188 93.4681 16.952 93.2681 17.68C93.0681 18.408 92.9681 19.02 92.9681 19.516C92.9681 19.772 93.0001 19.968 93.0641 20.104C93.1201 20.24 93.1881 20.308 93.2681 20.308ZM105.033 13.324C105.137 13.324 105.217 13.372 105.273 13.468C105.337 13.564 105.369 13.696 105.369 13.864C105.369 14.184 105.293 14.432 105.141 14.608C104.797 15.032 104.421 15.38 104.013 15.652C103.605 15.924 103.137 16.06 102.609 16.06C100.977 16.06 100.161 14.912 100.161 12.616C100.161 12.264 100.173 11.908 100.197 11.548H99.7295C99.4895 11.548 99.3255 11.504 99.2375 11.416C99.1575 11.328 99.1175 11.188 99.1175 10.996C99.1175 10.548 99.2975 10.324 99.6575 10.324H100.341C100.477 9.444 100.685 8.64 100.965 7.912C101.245 7.184 101.581 6.604 101.973 6.172C102.373 5.74 102.801 5.524 103.257 5.524C103.593 5.524 103.857 5.672 104.049 5.968C104.241 6.264 104.337 6.636 104.337 7.084C104.337 8.324 103.817 9.404 102.777 10.324H104.121C104.249 10.324 104.341 10.352 104.397 10.408C104.453 10.464 104.481 10.568 104.481 10.72C104.481 11.272 104.029 11.548 103.125 11.548H101.661C101.645 11.948 101.637 12.26 101.637 12.484C101.637 13.316 101.733 13.9 101.925 14.236C102.125 14.572 102.437 14.74 102.861 14.74C103.205 14.74 103.509 14.636 103.773 14.428C104.037 14.22 104.349 13.908 104.709 13.492C104.805 13.38 104.913 13.324 105.033 13.324ZM102.933 6.676C102.813 6.676 102.677 6.828 102.525 7.132C102.381 7.428 102.241 7.844 102.105 8.38C101.977 8.908 101.869 9.496 101.781 10.144C102.253 9.736 102.605 9.28 102.837 8.776C103.077 8.264 103.197 7.8 103.197 7.384C103.197 6.912 103.109 6.676 102.933 6.676ZM108.688 13.684C108.792 13.684 108.872 13.732 108.928 13.828C108.992 13.924 109.024 14.056 109.024 14.224C109.024 14.512 108.956 14.76 108.82 14.968C108.596 15.312 108.3 15.58 107.932 15.772C107.572 15.964 107.14 16.06 106.636 16.06C105.868 16.06 105.272 15.832 104.848 15.376C104.424 14.912 104.212 14.288 104.212 13.504C104.212 12.952 104.328 12.44 104.56 11.968C104.792 11.488 105.112 11.108 105.52 10.828C105.936 10.548 106.404 10.408 106.924 10.408C107.388 10.408 107.76 10.548 108.04 10.828C108.32 11.1 108.46 11.472 108.46 11.944C108.46 12.496 108.26 12.972 107.86 13.372C107.468 13.764 106.796 14.076 105.844 14.308C106.036 14.676 106.36 14.86 106.816 14.86C107.144 14.86 107.412 14.784 107.62 14.632C107.836 14.48 108.084 14.224 108.364 13.864C108.46 13.744 108.568 13.684 108.688 13.684ZM106.72 11.584C106.424 11.584 106.172 11.756 105.964 12.1C105.764 12.444 105.664 12.86 105.664 13.348V13.372C106.136 13.26 106.508 13.092 106.78 12.868C107.052 12.644 107.188 12.384 107.188 12.088C107.188 11.936 107.144 11.816 107.056 11.728C106.976 11.632 106.864 11.584 106.72 11.584ZM107.032 9.616C106.92 9.616 106.82 9.576 106.732 9.496C106.652 9.408 106.612 9.304 106.612 9.184C106.612 9.128 106.632 9.052 106.672 8.956L107.788 6.46C107.86 6.3 107.952 6.184 108.064 6.112C108.184 6.032 108.316 5.992 108.46 5.992C108.66 5.992 108.836 6.064 108.988 6.208C109.148 6.352 109.228 6.532 109.228 6.748C109.228 6.972 109.14 7.196 108.964 7.42L107.416 9.412C107.312 9.548 107.184 9.616 107.032 9.616Z" fill="#2F2105"/>
</svg>
