<svg width="18" height="13" viewBox="0 0 18 13" fill="none" xmlns="http://www.w3.org/2000/svg">
<g clip-path="url(#clip0_383_617)">
<path d="M16.5 0.299988H1.5C0.826903 0.299988 0.28125 0.882018 0.28125 1.59999V11.4C0.28125 12.118 0.826903 12.7 1.5 12.7H16.5C17.1731 12.7 17.7188 12.118 17.7188 11.4V1.59999C17.7188 0.882018 17.1731 0.299988 16.5 0.299988Z" stroke="black"/>
<path d="M8.77178 7.91743C8.93614 8.05185 9.17153 8.01871 9.29755 7.84341C9.42356 7.66809 9.3925 7.41701 9.22813 7.28259L8.77178 7.91743ZM0.527222 1.17444L8.77178 7.91743L9.22813 7.28259L0.983578 0.539581L0.527222 1.17444Z" fill="black"/>
<path d="M8.33079 7.33589C8.50488 7.21621 8.55506 6.96867 8.44288 6.78297C8.33068 6.59729 8.09861 6.54375 7.92451 6.66343L8.33079 7.33589ZM0.76565 12.5362L8.33079 7.33589L7.92451 6.66343L0.359375 11.8638L0.76565 12.5362Z" fill="black"/>
<path d="M10.0983 6.69308C9.92533 6.5715 9.69275 6.62248 9.57877 6.80692C9.46481 6.99138 9.5126 7.23946 9.68551 7.36104L10.0983 6.69308ZM17.4563 11.866L10.0983 6.69308L9.68551 7.36104L17.0436 12.534L17.4563 11.866Z" fill="black"/>
<path d="M8.76658 7.28696C8.60448 7.42448 8.57761 7.67612 8.70654 7.849C8.83546 8.0219 9.07138 8.05056 9.23345 7.91304L8.76658 7.28696ZM17.0166 0.286957L8.76658 7.28696L9.23345 7.91304L17.4835 0.913037L17.0166 0.286957Z" fill="black"/>
</g>
<defs>
<clipPath id="clip0_383_617">
<rect width="18" height="13" fill="white"/>
</clipPath>
</defs>
</svg>
