<svg width="29" height="25" viewBox="0 0 29 25" fill="none" xmlns="http://www.w3.org/2000/svg">
<path d="M1 3H3.04878L3.92683 6.23077M3.92683 6.23077L6.85366 17H22.0732L25 6.23077H3.92683Z" stroke="black" stroke-linecap="round" stroke-linejoin="round"/>
<path d="M9.00967 23.0193C10.1196 23.0193 11.0193 22.1196 11.0193 21.0097C11.0193 19.8998 10.1196 19 9.00967 19C7.89976 19 7 19.8998 7 21.0097C7 22.1196 7.89976 23.0193 9.00967 23.0193Z" stroke="black" stroke-linecap="round" stroke-linejoin="round"/>
<path d="M20.0097 23.0193C21.1196 23.0193 22.0193 22.1196 22.0193 21.0097C22.0193 19.8998 21.1196 19 20.0097 19C18.8998 19 18 19.8998 18 21.0097C18 22.1196 18.8998 23.0193 20.0097 23.0193Z" stroke="black" stroke-linecap="round" stroke-linejoin="round"/>
</svg>
