<svg width="187" height="72" viewBox="0 0 187 72" fill="none" xmlns="http://www.w3.org/2000/svg">
<path d="M2.064 39.8C2.064 37.08 2.608 34.712 3.696 32.696C4.784 30.648 6.288 29.064 8.208 27.944C10.16 26.824 12.384 26.264 14.88 26.264C18.112 26.264 20.768 27.048 22.848 28.616C24.96 30.184 26.352 32.36 27.024 35.144H22.32C21.872 33.544 20.992 32.28 19.68 31.352C18.4 30.424 16.8 29.96 14.88 29.96C12.384 29.96 10.368 30.824 8.832 32.552C7.296 34.248 6.528 36.664 6.528 39.8C6.528 42.968 7.296 45.416 8.832 47.144C10.368 48.872 12.384 49.736 14.88 49.736C16.8 49.736 18.4 49.288 19.68 48.392C20.96 47.496 21.84 46.216 22.32 44.552H27.024C26.32 47.24 24.912 49.4 22.8 51.032C20.688 52.632 18.048 53.432 14.88 53.432C12.384 53.432 10.16 52.872 8.208 51.752C6.288 50.632 4.784 49.048 3.696 47C2.608 44.952 2.064 42.552 2.064 39.8ZM56.8523 38.84C56.8523 39.672 56.8043 40.552 56.7083 41.48H35.6843C35.8443 44.072 36.7243 46.104 38.3243 47.576C39.9563 49.016 41.9243 49.736 44.2283 49.736C46.1163 49.736 47.6843 49.304 48.9323 48.44C50.2123 47.544 51.1083 46.36 51.6203 44.888H56.3243C55.6203 47.416 54.2123 49.48 52.1003 51.08C49.9883 52.648 47.3643 53.432 44.2283 53.432C41.7323 53.432 39.4923 52.872 37.5083 51.752C35.5563 50.632 34.0203 49.048 32.9003 47C31.7803 44.92 31.2203 42.52 31.2203 39.8C31.2203 37.08 31.7643 34.696 32.8523 32.648C33.9403 30.6 35.4603 29.032 37.4123 27.944C39.3963 26.824 41.6683 26.264 44.2283 26.264C46.7243 26.264 48.9323 26.808 50.8523 27.896C52.7723 28.984 54.2443 30.488 55.2683 32.408C56.3243 34.296 56.8523 36.44 56.8523 38.84ZM52.3403 37.928C52.3403 36.264 51.9723 34.84 51.2363 33.656C50.5003 32.44 49.4923 31.528 48.2123 30.92C46.9643 30.28 45.5723 29.96 44.0363 29.96C41.8283 29.96 39.9403 30.664 38.3723 32.072C36.8363 33.48 35.9563 35.432 35.7323 37.928H52.3403ZM66.9859 17.48V53H62.6179V17.48H66.9859ZM72.7984 39.752C72.7984 37.064 73.3424 34.712 74.4304 32.696C75.5184 30.648 77.0064 29.064 78.8944 27.944C80.8144 26.824 82.9424 26.264 85.2784 26.264C87.5824 26.264 89.5824 26.76 91.2784 27.752C92.9744 28.744 94.2384 29.992 95.0704 31.496V26.696H99.4864V53H95.0704V48.104C94.2064 49.64 92.9104 50.92 91.1824 51.944C89.4864 52.936 87.5024 53.432 85.2304 53.432C82.8944 53.432 80.7824 52.856 78.8944 51.704C77.0064 50.552 75.5184 48.936 74.4304 46.856C73.3424 44.776 72.7984 42.408 72.7984 39.752ZM95.0704 39.8C95.0704 37.816 94.6704 36.088 93.8704 34.616C93.0704 33.144 91.9824 32.024 90.6064 31.256C89.2624 30.456 87.7744 30.056 86.1424 30.056C84.5104 30.056 83.0224 30.44 81.6784 31.208C80.3344 31.976 79.2624 33.096 78.4624 34.568C77.6624 36.04 77.2624 37.768 77.2624 39.752C77.2624 41.768 77.6624 43.528 78.4624 45.032C79.2624 46.504 80.3344 47.64 81.6784 48.44C83.0224 49.208 84.5104 49.592 86.1424 49.592C87.7744 49.592 89.2624 49.208 90.6064 48.44C91.9824 47.64 93.0704 46.504 93.8704 45.032C94.6704 43.528 95.0704 41.784 95.0704 39.8ZM110.132 49.4H123.044V53H105.14V49.4L117.908 30.248H105.236V26.696H122.948V30.248L110.132 49.4ZM140.184 53.432C137.72 53.432 135.48 52.872 133.464 51.752C131.48 50.632 129.912 49.048 128.76 47C127.64 44.92 127.08 42.52 127.08 39.8C127.08 37.112 127.656 34.744 128.808 32.696C129.992 30.616 131.592 29.032 133.608 27.944C135.624 26.824 137.88 26.264 140.376 26.264C142.872 26.264 145.128 26.824 147.144 27.944C149.16 29.032 150.744 30.6 151.896 32.648C153.08 34.696 153.672 37.08 153.672 39.8C153.672 42.52 153.064 44.92 151.848 47C150.664 49.048 149.048 50.632 147 51.752C144.952 52.872 142.68 53.432 140.184 53.432ZM140.184 49.592C141.752 49.592 143.224 49.224 144.6 48.488C145.976 47.752 147.08 46.648 147.912 45.176C148.776 43.704 149.208 41.912 149.208 39.8C149.208 37.688 148.792 35.896 147.96 34.424C147.128 32.952 146.04 31.864 144.696 31.16C143.352 30.424 141.896 30.056 140.328 30.056C138.728 30.056 137.256 30.424 135.912 31.16C134.6 31.864 133.544 32.952 132.744 34.424C131.944 35.896 131.544 37.688 131.544 39.8C131.544 41.944 131.928 43.752 132.696 45.224C133.496 46.696 134.552 47.8 135.864 48.536C137.176 49.24 138.616 49.592 140.184 49.592ZM172.231 26.216C175.431 26.216 178.023 27.192 180.007 29.144C181.991 31.064 182.983 33.848 182.983 37.496V53H178.663V38.12C178.663 35.496 178.007 33.496 176.695 32.12C175.383 30.712 173.591 30.008 171.319 30.008C169.015 30.008 167.175 30.728 165.799 32.168C164.455 33.608 163.783 35.704 163.783 38.456V53H159.415V26.696H163.783V30.44C164.647 29.096 165.815 28.056 167.287 27.32C168.791 26.584 170.439 26.216 172.231 26.216Z" fill="black"/>
<path d="M182 58C182 64.6274 142.601 70 94 70C45.3989 70 6 64.6274 6 58C16 61 45.3989 66.5035 94 66.5035C142.601 66.5035 173.727 60.5094 182 58Z" fill="#FF9811"/>
</svg>
